<svg xmlns="http://www.w3.org/2000/svg" xmlns:xlink="http://www.w3.org/1999/xlink" viewBox="0 0 65 36" fill="#fff" fill-rule="evenodd" stroke="#000" stroke-linecap="round" stroke-linejoin="round"><use xlink:href="#A" x=".5" y=".5"/><symbol id="A" overflow="visible"><g stroke="none"><path d="M61.014.128C60.666.041 60.309-.002 59.95 0H11.003a4.06 4.06 0 0 0-3.923 3.009L.137 28.918c-.575 2.172.712 4.4 2.881 4.986a4.4 4.4 0 0 0 1.063.138h48.905a4.07 4.07 0 0 0 3.923-3.019l6.942-25.888C64.45 2.969 63.18.727 61.014.128z" fill="#00aeef"/><path d="M30.798 30.789H11.002a.82.82 0 0 1-.808-.819V4.083a.82.82 0 0 1 .808-.819h19.796l-1.999 7.442h-9.792v2.573h6.751l-1.999 7.442h-4.72v2.573H30.83zm23.039-.819a.82.82 0 0 1-.808.819h-7.995V20.753h-2.711v10.036h-8.814V20.753h-7.442l1.999-7.442h5.401V3.317h8.814v10.036h2.711V3.317h7.995a.82.82 0 0 1 .808.819z"/></g></symbol></svg>